<?xml version="1.0" standalone="no"?>
<!DOCTYPE svg PUBLIC "-//W3C//DTD SVG 20010904//EN"
 "http://www.w3.org/TR/2001/REC-SVG-20010904/DTD/svg10.dtd">
<svg version="1.0" xmlns="http://www.w3.org/2000/svg"
 width="512.000000pt" height="512.000000pt" viewBox="0 0 512.000000 512.000000"
 preserveAspectRatio="xMidYMid meet">

<g transform="translate(0.000000,512.000000) scale(0.100000,-0.100000)"
fill="#000000" stroke="none">
<path d="M2093 4599 c-18 -5 -48 -25 -68 -44 -91 -91 -63 -235 57 -296 l38
-20 -2 -461 -3 -462 -80 -31 c-417 -163 -737 -500 -874 -922 -58 -179 -66
-233 -66 -458 0 -214 9 -283 62 -449 111 -354 389 -684 718 -853 195 -100 144
-93 690 -93 l480 1 90 37 c325 136 584 382 745 707 111 224 153 403 153 650 0
310 -79 569 -255 832 -163 244 -446 464 -715 559 l-53 18 0 465 0 466 49 27
c117 64 122 231 9 305 l-42 28 -450 2 c-264 1 -464 -2 -483 -8z m933 -122 c29
-34 31 -66 3 -101 -14 -18 -30 -26 -53 -26 -18 0 -41 -6 -52 -14 -18 -14 -19
-33 -22 -537 -2 -448 0 -525 12 -544 10 -15 43 -32 94 -49 179 -60 346 -163
493 -304 202 -193 321 -395 391 -662 26 -100 31 -138 35 -286 8 -258 -31 -442
-138 -657 -71 -142 -140 -238 -259 -358 -123 -123 -261 -219 -410 -285 l-101
-45 -467 3 -467 3 -65 30 c-36 16 -102 50 -146 76 -333 189 -574 522 -659 912
-24 110 -30 361 -11 477 33 205 109 398 224 569 75 112 253 291 362 363 105
69 220 127 325 163 44 16 86 35 93 43 9 12 12 135 12 539 0 510 -1 524 -20
543 -11 11 -33 20 -49 20 -64 0 -101 72 -62 122 12 15 31 29 44 31 12 3 213 4
445 3 l424 -1 24 -28z"/>
<path d="M2498 2823 c-72 -67 -223 -245 -299 -352 -185 -264 -270 -475 -270
-678 -1 -260 134 -483 363 -599 41 -21 113 -43 191 -59 l27 -5 0 -90 c0 -77 3
-93 20 -110 23 -23 33 -24 61 -10 17 10 19 22 19 110 0 95 1 100 23 104 108
23 141 32 202 62 221 105 364 339 365 595 0 195 -113 457 -316 729 -120 162
-291 350 -318 350 -9 0 -40 -21 -68 -47z m10 -577 l-3 -143 -132 126 -133 126
59 78 c32 43 91 117 132 165 l74 87 3 -147 c1 -82 1 -213 0 -292z m226 299
c39 -49 89 -113 109 -142 l37 -51 -107 -105 c-60 -58 -120 -115 -135 -127
l-28 -21 0 292 0 292 26 -24 c14 -13 58 -64 98 -114z m-383 -437 l159 -151 0
-205 0 -204 -141 133 c-77 74 -179 170 -227 215 l-86 80 23 65 c24 65 99 219
108 219 3 0 76 -68 164 -152z m641 47 c22 -44 49 -102 58 -130 l17 -50 -223
-212 c-122 -117 -225 -213 -228 -213 -3 0 -6 89 -6 199 l0 198 103 100 c193
188 221 212 230 200 4 -7 26 -48 49 -92z m-553 -681 l71 -66 0 -85 0 -86 -47
7 c-26 3 -83 24 -128 46 -184 89 -305 285 -305 495 l0 77 169 -161 c93 -88
201 -191 240 -227z m661 319 c-1 -189 -101 -376 -254 -475 -60 -38 -167 -78
-212 -78 -23 0 -24 2 -24 80 l0 79 237 226 c131 124 241 225 245 225 5 0 8
-26 8 -57z"/>
</g>
</svg>
