<?xml version="1.0" standalone="no"?>
<!DOCTYPE svg PUBLIC "-//W3C//DTD SVG 20010904//EN"
 "http://www.w3.org/TR/2001/REC-SVG-20010904/DTD/svg10.dtd">
<svg version="1.0" xmlns="http://www.w3.org/2000/svg"
 width="32.000000pt" height="32.000000pt" viewBox="0 0 32.000000 32.000000"
 preserveAspectRatio="xMidYMid meet">

<g transform="translate(0.000000,32.000000) scale(0.100000,-0.100000)"
fill="#000000" stroke="none">
<path d="M129 283 c-1 -4 0 -22 1 -38 1 -22 -7 -38 -29 -59 -64 -61 -28 -156
59 -156 87 0 123 95 59 156 -24 23 -30 36 -27 64 3 33 1 35 -29 38 -18 2 -33
0 -34 -5z m53 -38 c-3 -29 1 -39 27 -61 25 -21 31 -33 31 -65 0 -52 -27 -79
-80 -79 -53 0 -80 27 -80 79 0 32 6 44 31 65 26 22 30 32 27 61 -4 32 -2 35
22 35 24 0 26 -3 22 -35z"/>
<path d="M143 161 c-10 -15 -9 -22 2 -31 23 -19 48 5 32 31 -6 10 -14 19 -17
19 -3 0 -11 -9 -17 -19z m32 -11 c3 -5 -3 -10 -15 -10 -12 0 -18 5 -15 10 3 6
10 10 15 10 5 0 12 -4 15 -10z"/>
<path d="M121 111 c8 -53 70 -53 78 0 3 24 3 24 -18 5 -21 -19 -21 -19 -42 0
-21 19 -21 19 -18 -5z m56 -10 c14 12 16 12 11 -1 -2 -8 -15 -15 -28 -15 -13
0 -26 7 -28 15 -5 13 -3 13 11 1 14 -11 20 -11 34 0z"/>
</g>
</svg>
