<?xml version="1.0" standalone="no"?>
<!DOCTYPE svg PUBLIC "-//W3C//DTD SVG 20010904//EN"
 "http://www.w3.org/TR/2001/REC-SVG-20010904/DTD/svg10.dtd">
<svg version="1.0" xmlns="http://www.w3.org/2000/svg"
 width="16.000000pt" height="16.000000pt" viewBox="0 0 16.000000 16.000000"
 preserveAspectRatio="xMidYMid meet">

<g transform="translate(0.000000,16.000000) scale(0.100000,-0.100000)"
fill="#000000" stroke="none">
<path d="M36 126 c-14 -19 -26 -41 -26 -48 0 -19 21 -38 42 -38 11 0 18 -7 18
-20 0 -11 5 -20 10 -20 6 0 10 9 10 20 0 13 7 20 18 20 21 0 42 19 42 38 0 22
-51 82 -70 82 -10 0 -29 -15 -44 -34z m83 -6 c26 -35 21 -70 -10 -70 -16 0
-20 6 -17 27 2 16 -2 28 -11 31 -10 3 -12 0 -8 -12 4 -9 2 -16 -3 -16 -5 0 -7
-7 -4 -15 4 -10 0 -15 -14 -15 -32 0 -37 34 -11 70 13 16 30 30 39 30 9 0 26
-14 39 -30z"/>
</g>
</svg>
