<?xml version="1.0" standalone="no"?>
<!DOCTYPE svg PUBLIC "-//W3C//DTD SVG 20010904//EN"
 "http://www.w3.org/TR/2001/REC-SVG-20010904/DTD/svg10.dtd">
<svg version="1.0" xmlns="http://www.w3.org/2000/svg"
 width="32.000000pt" height="32.000000pt" viewBox="0 0 32.000000 32.000000"
 preserveAspectRatio="xMidYMid meet">

<g transform="translate(0.000000,32.000000) scale(0.100000,-0.100000)"
fill="#000000" stroke="none">
<path d="M106 299 c-14 -11 -26 -25 -26 -31 0 -6 -13 -26 -30 -45 -37 -42 -38
-72 -3 -113 23 -27 32 -31 65 -28 l38 4 0 -43 c0 -24 5 -43 10 -43 6 0 10 19
10 43 l0 43 38 -4 c33 -3 42 1 65 28 35 41 34 71 -3 113 -16 19 -30 39 -30 45
0 18 -52 52 -80 52 -15 0 -39 -9 -54 -21z m103 -26 c12 -16 32 -40 46 -56 47
-52 18 -121 -48 -115 -27 3 -33 8 -35 32 -3 22 3 35 20 49 l23 19 -22 -5 c-18
-4 -23 -1 -23 14 0 10 -4 19 -10 19 -5 0 -10 -18 -10 -39 0 -35 -2 -39 -22
-34 l-23 5 24 -20 c13 -11 21 -24 17 -31 -12 -18 -64 -13 -86 9 -27 27 -25 64
5 97 14 16 34 40 46 56 14 18 30 27 49 27 19 0 35 -9 49 -27z"/>
</g>
</svg>
