<?xml version="1.0" standalone="no"?>
<!DOCTYPE svg PUBLIC "-//W3C//DTD SVG 20010904//EN"
 "http://www.w3.org/TR/2001/REC-SVG-20010904/DTD/svg10.dtd">
<svg version="1.0" xmlns="http://www.w3.org/2000/svg"
 width="8.000000pt" height="8.000000pt" viewBox="0 0 8.000000 8.000000"
 preserveAspectRatio="xMidYMid meet">

<g transform="translate(0.000000,8.000000) scale(0.100000,-0.100000)"
fill="#000000" stroke="none">
<path d="M16 61 c-23 -25 -13 -41 24 -41 16 0 32 5 35 11 7 10 -21 49 -35 49
-4 0 -15 -9 -24 -19z m42 -3 c17 -17 15 -28 -4 -28 -9 0 -12 5 -8 13 5 8 2 7
-9 -2 -22 -17 -34 -7 -17 14 15 18 22 19 38 3z"/>
</g>
</svg>
