<?xml version="1.0" standalone="no"?>
<!DOCTYPE svg PUBLIC "-//W3C//DTD SVG 20010904//EN"
 "http://www.w3.org/TR/2001/REC-SVG-20010904/DTD/svg10.dtd">
<svg version="1.0" xmlns="http://www.w3.org/2000/svg"
 width="200.000000pt" height="56.000000pt" viewBox="0 0 200.000000 56.000000"
 preserveAspectRatio="xMidYMid meet">

<g transform="translate(0.000000,56.000000) scale(0.100000,-0.100000)"
fill="#000000" stroke="none">
<path d="M210 471 l95 -6 3 -163 2 -162 -135 0 -135 0 0 145 c0 90 -4 145 -10
145 -6 0 -10 -58 -10 -154 l0 -153 45 -42 45 -41 130 0 c177 0 170 -7 170 191
l0 151 -29 29 c-16 16 -34 29 -39 29 -5 0 -12 9 -15 20 -5 19 -13 20 -109 18
l-103 -2 95 -5z m140 -206 c0 -142 -2 -155 -19 -165 -11 -5 -71 -10 -134 -10
-90 0 -117 3 -127 15 -11 13 2 15 112 15 83 0 128 4 136 12 8 8 12 57 12 156
0 93 4 141 10 137 6 -4 10 -68 10 -160z m48 -22 c2 -129 1 -142 -18 -166 -21
-27 -24 -27 -140 -27 -92 0 -120 3 -130 15 -11 13 2 15 105 15 161 0 155 -6
155 172 0 107 3 139 13 136 9 -3 13 -44 15 -145z"/>
<path d="M490 344 c0 -83 1 -85 23 -82 17 2 23 11 25 36 2 23 8 32 22 32 14 0
20 -9 22 -32 2 -25 8 -34 26 -36 20 -3 22 1 22 42 0 31 -5 48 -16 54 -13 7
-14 13 -5 30 16 30 14 42 -9 42 -13 0 -25 -13 -37 -37 l-17 -38 -4 38 c-3 32
-7 37 -28 37 -24 0 -24 -2 -24 -86z"/>
<path d="M670 345 c0 -78 2 -85 20 -85 17 0 20 7 20 40 0 22 4 40 9 40 12 0
41 -46 41 -65 0 -8 9 -15 20 -15 18 0 20 7 20 85 0 78 -2 85 -20 85 -16 0 -20
-7 -20 -32 l0 -32 -33 32 c-51 49 -57 44 -57 -53z"/>
<path d="M858 419 c-27 -15 -26 -134 1 -149 28 -15 73 -12 99 6 18 12 22 25
22 69 0 35 -5 59 -16 69 -17 18 -80 21 -106 5z m72 -75 c0 -41 -2 -45 -22 -42
-40 5 -38 88 2 88 17 0 20 -6 20 -46z"/>
<path d="M1010 371 c0 -33 4 -71 10 -85 13 -34 47 -35 56 -1 3 14 9 25 13 25
4 0 13 -11 19 -25 28 -61 62 -13 62 86 0 52 -2 59 -20 59 -17 0 -20 -7 -20
-45 0 -49 -5 -54 -26 -27 -13 16 -15 16 -29 -2 -14 -18 -15 -17 -15 27 0 43
-2 47 -25 47 -24 0 -25 -3 -25 -59z"/>
<path d="M1210 345 l0 -86 63 3 62 3 3 43 c3 39 1 42 -22 42 -21 0 -26 -5 -26
-26 0 -19 -5 -25 -17 -22 -15 3 -19 16 -21 66 -3 54 -6 62 -22 62 -18 0 -20
-7 -20 -85z"/>
<path d="M1370 345 l0 -86 57 3 c45 2 59 7 61 20 2 13 -5 17 -35 20 -42 3 -48
21 -8 26 14 2 25 9 25 17 0 8 -11 15 -25 17 -38 5 -31 23 10 26 27 2 35 8 35
23 0 17 -7 19 -60 19 l-60 0 0 -85z"/>
<path d="M1522 348 l3 -83 59 1 c70 2 76 9 76 87 0 53 -2 58 -26 67 -14 6 -45
10 -70 10 l-45 0 3 -82z m88 -3 c0 -38 -3 -45 -20 -45 -17 0 -20 7 -20 45 0
38 3 45 20 45 17 0 20 -7 20 -45z"/>
<path d="M1730 423 c-26 -9 -40 -36 -40 -78 0 -61 16 -77 81 -78 l54 -2 3 43
c3 39 1 42 -22 42 -21 0 -26 -5 -26 -26 0 -19 -4 -25 -17 -22 -14 2 -18 13
-18 43 0 38 2 40 33 43 24 2 32 8 32 23 0 15 -7 19 -32 18 -18 0 -40 -3 -48
-6z"/>
<path d="M1860 345 l0 -85 60 0 c53 0 60 2 60 20 0 16 -7 20 -35 20 -24 0 -35
5 -35 15 0 9 9 15 25 15 16 0 25 6 25 15 0 9 -9 15 -25 15 -16 0 -25 6 -25 15
0 10 11 15 35 15 28 0 35 4 35 20 0 18 -7 20 -60 20 l-60 0 0 -85z"/>
<path d="M490 150 c0 -79 0 -80 25 -80 21 0 25 5 25 30 0 23 4 30 20 30 16 0
20 -7 20 -30 0 -25 4 -30 25 -30 22 0 25 4 25 39 0 21 -6 44 -14 51 -11 8 -12
18 -5 36 12 34 12 34 -12 34 -14 0 -24 -10 -32 -30 -6 -16 -15 -30 -19 -30 -4
0 -8 14 -8 30 0 25 -4 30 -25 30 -25 0 -25 -1 -25 -80z"/>
<path d="M670 150 l0 -80 55 0 c48 0 55 2 55 20 0 16 -7 20 -35 20 -19 0 -35
5 -35 10 0 6 11 10 25 10 18 0 25 5 25 20 0 15 -7 20 -25 20 -14 0 -25 5 -25
10 0 6 16 10 35 10 28 0 35 4 35 20 0 18 -7 20 -55 20 l-55 0 0 -80z"/>
<path d="M820 150 l0 -80 61 0 c52 0 60 2 57 17 -2 13 -14 19 -41 21 -44 4
-50 22 -7 22 23 0 30 4 30 20 0 16 -7 20 -30 20 -16 0 -30 5 -30 10 0 6 18 10
40 10 33 0 40 3 40 20 0 18 -7 20 -60 20 l-60 0 0 -80z"/>
<path d="M970 150 c0 -79 0 -80 25 -80 20 0 25 5 25 25 0 22 4 25 34 25 36 0
46 12 46 59 0 39 -17 51 -77 51 l-53 0 0 -80z m85 20 c0 -8 -8 -16 -17 -18
-13 -2 -18 3 -18 18 0 15 5 20 18 18 9 -2 17 -10 17 -18z"/>
</g>
</svg>
